<svg xmlns="http://www.w3.org/2000/svg" xmlns:xlink="http://www.w3.org/1999/xlink" width="50" zoomAndPan="magnify" viewBox="0 0 37.5 37.499999" height="50" preserveAspectRatio="xMidYMid meet" version="1.0"><defs><clipPath id="1f12e86642"><path d="M 0.375 0.375 L 36.640625 0.375 L 36.640625 36.640625 L 0.375 36.640625 Z M 0.375 0.375 " clip-rule="nonzero"/></clipPath></defs><g clip-path="url(#1f12e86642)"><path fill="#000000" d="M 18.507812 0.375 C 8.484375 0.375 0.375 8.484375 0.375 18.507812 C 0.375 28.527344 8.484375 36.640625 18.507812 36.640625 C 28.527344 36.640625 36.640625 28.53125 36.640625 18.507812 C 36.640625 8.484375 28.53125 0.375 18.507812 0.375 Z M 18.507812 34.507812 C 9.683594 34.507812 2.507812 27.328125 2.507812 18.507812 C 2.507812 9.683594 9.683594 2.507812 18.507812 2.507812 C 27.328125 2.507812 34.507812 9.683594 34.507812 18.507812 C 34.507812 27.328125 27.328125 34.507812 18.507812 34.507812 Z M 18.507812 34.507812 " fill-opacity="1" fill-rule="nonzero"/></g><path fill="#000000" d="M 26.679688 10.085938 C 24.667969 8.074219 21.398438 8.074219 19.386719 10.085938 L 16.117188 13.351562 C 15.628906 13.84375 15.261719 14.40625 15.007812 15.007812 C 14.394531 15.265625 13.828125 15.644531 13.351562 16.117188 L 10.085938 19.386719 C 8.074219 21.398438 8.074219 24.667969 10.085938 26.679688 C 10.214844 26.765625 11.484375 28.4375 13.980469 28.4375 C 15.300781 28.4375 16.621094 27.933594 17.628906 26.929688 L 20.894531 23.660156 C 21.382812 23.171875 21.753906 22.609375 22.003906 22.007812 C 22.621094 21.75 23.1875 21.371094 23.660156 20.894531 L 26.929688 17.628906 C 28.941406 15.617188 28.941406 12.347656 26.929688 10.335938 Z M 25.421875 16.117188 L 22.339844 19.203125 C 22.027344 17.238281 20.75 16.261719 20.644531 16.117188 C 20.226562 15.703125 19.550781 15.703125 19.136719 16.117188 C 18.71875 16.535156 18.71875 17.210938 19.136719 17.628906 L 19.386719 17.878906 C 20.566406 19.058594 20.570312 20.972656 19.386719 22.152344 L 16.117188 25.421875 C 14.941406 26.597656 13.023438 26.597656 11.84375 25.421875 L 11.59375 25.167969 C 10.414062 23.992188 10.414062 22.074219 11.59375 20.894531 L 14.675781 17.8125 C 14.988281 19.777344 16.261719 20.753906 16.371094 20.894531 C 16.785156 21.3125 17.460938 21.3125 17.878906 20.894531 C 18.296875 20.480469 18.296875 19.804688 17.878906 19.386719 C 17.785156 19.257812 16.742188 18.511719 16.742188 17 C 16.742188 16.191406 17.054688 15.433594 17.628906 14.863281 L 20.894531 11.59375 C 22.074219 10.414062 23.992188 10.414062 25.167969 11.59375 L 25.421875 11.84375 C 26.597656 13.023438 26.597656 14.941406 25.421875 16.117188 Z M 25.421875 16.117188 " fill-opacity="1" fill-rule="nonzero"/></svg>