<svg xmlns="http://www.w3.org/2000/svg" xmlns:xlink="http://www.w3.org/1999/xlink" width="50" zoomAndPan="magnify" viewBox="0 0 37.5 37.499999" height="50" preserveAspectRatio="xMidYMid meet" version="1.0"><defs><clipPath id="7b42e38721"><path d="M 0 0.371094 L 36.265625 0.371094 L 36.265625 36.636719 L 0 36.636719 Z M 0 0.371094 " clip-rule="nonzero"/></clipPath></defs><g clip-path="url(#7b42e38721)"><path fill="#000000" d="M 18.117188 0.378906 C 8.121094 0.378906 -0.0117188 8.511719 -0.0117188 18.507812 C -0.0117188 28.503906 8.121094 36.636719 18.117188 36.636719 C 28.113281 36.636719 36.246094 28.503906 36.246094 18.507812 C 36.246094 8.511719 28.113281 0.378906 18.117188 0.378906 Z M 18.117188 34.847656 C 9.109375 34.847656 1.777344 27.515625 1.777344 18.507812 C 1.777344 9.496094 9.109375 2.167969 18.117188 2.167969 C 27.128906 2.167969 34.460938 9.496094 34.460938 18.507812 C 34.460938 27.515625 27.128906 34.847656 18.117188 34.847656 Z M 18.117188 34.847656 " fill-opacity="1" fill-rule="nonzero"/></g><path fill="#000000" d="M 23.066406 16.160156 C 24.738281 16.160156 26.09375 14.804688 26.09375 13.132812 C 26.09375 11.457031 24.738281 10.101562 23.066406 10.101562 C 21.390625 10.101562 20.035156 11.457031 20.035156 13.132812 C 20.035156 13.292969 20.050781 13.449219 20.078125 13.601562 L 14.957031 16.0625 C 14.453125 15.699219 13.839844 15.480469 13.171875 15.480469 C 11.5 15.480469 10.144531 16.835938 10.144531 18.507812 C 10.144531 20.179688 11.5 21.535156 13.171875 21.535156 C 13.839844 21.535156 14.453125 21.316406 14.957031 20.949219 L 20.078125 23.414062 C 20.050781 23.566406 20.035156 23.722656 20.035156 23.882812 C 20.035156 25.554688 21.390625 26.910156 23.0625 26.910156 C 24.738281 26.910156 26.09375 25.554688 26.09375 23.882812 C 26.09375 22.210938 24.738281 20.855469 23.066406 20.855469 C 22.179688 20.855469 21.386719 21.238281 20.832031 21.84375 L 16.019531 19.53125 C 16.136719 19.210938 16.203125 18.867188 16.203125 18.507812 C 16.203125 18.148438 16.136719 17.804688 16.019531 17.484375 L 20.832031 15.171875 C 21.386719 15.777344 22.179688 16.160156 23.066406 16.160156 Z M 23.066406 16.160156 " fill-opacity="1" fill-rule="nonzero"/></svg>