<svg xmlns="http://www.w3.org/2000/svg" xmlns:xlink="http://www.w3.org/1999/xlink" width="50" zoomAndPan="magnify" viewBox="0 0 37.5 37.499999" height="50" preserveAspectRatio="xMidYMid meet" version="1.0"><defs><clipPath id="b76653f80d"><path d="M 0.457031 0.359375 L 36.722656 0.359375 L 36.722656 36.625 L 0.457031 36.625 Z M 0.457031 0.359375 " clip-rule="nonzero"/></clipPath></defs><g clip-path="url(#b76653f80d)"><path fill="#65cf72" d="M 31.4375 5.644531 C 28.027344 2.253906 23.496094 0.382812 18.664062 0.382812 C 8.710938 0.382812 0.613281 8.433594 0.609375 18.332031 C 0.609375 21.496094 1.4375 24.585938 3.019531 27.304688 L 0.457031 36.609375 L 10.027344 34.109375 C 12.667969 35.542969 15.636719 36.292969 18.65625 36.296875 L 18.664062 36.296875 C 28.613281 36.296875 36.714844 28.242188 36.71875 18.347656 C 36.71875 13.550781 34.84375 9.039062 31.433594 5.644531 Z M 18.664062 33.265625 L 18.660156 33.265625 C 15.96875 33.265625 13.324219 32.546875 11.019531 31.1875 L 10.472656 30.863281 L 4.792969 32.34375 L 6.308594 26.835938 L 5.949219 26.273438 C 4.449219 23.898438 3.65625 21.152344 3.65625 18.332031 C 3.660156 10.105469 10.394531 3.414062 18.667969 3.414062 C 22.679688 3.414062 26.445312 4.96875 29.28125 7.789062 C 32.113281 10.609375 33.671875 14.355469 33.667969 18.34375 C 33.667969 26.570312 26.933594 33.265625 18.664062 33.265625 Z M 26.894531 22.09375 C 26.445312 21.867188 24.226562 20.78125 23.8125 20.632812 C 23.398438 20.484375 23.101562 20.410156 22.800781 20.859375 C 22.496094 21.308594 21.632812 22.316406 21.371094 22.617188 C 21.105469 22.914062 20.84375 22.953125 20.390625 22.726562 C 19.941406 22.503906 18.488281 22.027344 16.761719 20.5 C 15.421875 19.3125 14.515625 17.84375 14.253906 17.394531 C 13.992188 16.945312 14.226562 16.703125 14.453125 16.476562 C 14.652344 16.277344 14.902344 15.953125 15.128906 15.691406 C 15.355469 15.429688 15.429688 15.242188 15.578125 14.941406 C 15.730469 14.644531 15.65625 14.382812 15.542969 14.15625 C 15.429688 13.933594 14.527344 11.722656 14.152344 10.828125 C 13.785156 9.953125 13.414062 10.070312 13.136719 10.054688 C 12.875 10.042969 12.574219 10.039062 12.273438 10.039062 C 11.972656 10.039062 11.484375 10.152344 11.070312 10.601562 C 10.652344 11.050781 9.492188 12.136719 9.492188 14.34375 C 9.492188 16.550781 11.105469 18.683594 11.332031 18.984375 C 11.558594 19.28125 14.515625 23.8125 19.039062 25.757812 C 20.117188 26.21875 20.957031 26.496094 21.613281 26.703125 C 22.695312 27.042969 23.679688 26.996094 24.453125 26.878906 C 25.320312 26.75 27.121094 25.792969 27.5 24.746094 C 27.875 23.699219 27.875 22.800781 27.761719 22.613281 C 27.648438 22.425781 27.347656 22.3125 26.898438 22.089844 Z M 26.894531 22.09375 " fill-opacity="1" fill-rule="evenodd"/></g></svg>