<svg xmlns="http://www.w3.org/2000/svg" xmlns:xlink="http://www.w3.org/1999/xlink" width="50" zoomAndPan="magnify" viewBox="0 0 37.5 37.499999" height="50" preserveAspectRatio="xMidYMid meet" version="1.0"><defs><clipPath id="fd2b664fe4"><path d="M 0.46875 0.371094 L 36.738281 0.371094 L 36.738281 36.636719 L 0.46875 36.636719 Z M 0.46875 0.371094 " clip-rule="nonzero"/></clipPath></defs><g clip-path="url(#fd2b664fe4)"><path fill="#000000" d="M 31.449219 5.65625 C 28.039062 2.261719 23.507812 0.390625 18.675781 0.390625 C 8.726562 0.390625 0.625 8.441406 0.621094 18.34375 C 0.621094 21.507812 1.453125 24.601562 3.03125 27.320312 L 0.46875 36.628906 L 10.042969 34.128906 C 12.679688 35.5625 15.648438 36.3125 18.667969 36.316406 L 18.675781 36.316406 C 28.628906 36.316406 36.730469 28.257812 36.730469 18.359375 C 36.730469 13.5625 34.855469 9.050781 31.445312 5.65625 Z M 18.675781 33.285156 L 18.671875 33.285156 C 15.980469 33.285156 13.335938 32.5625 11.03125 31.203125 L 10.484375 30.878906 L 4.804688 32.359375 L 6.320312 26.851562 L 5.964844 26.289062 C 4.460938 23.910156 3.667969 21.164062 3.667969 18.34375 C 3.671875 10.117188 10.40625 3.421875 18.683594 3.421875 C 22.691406 3.421875 26.457031 4.976562 29.292969 7.796875 C 32.125 10.617188 33.683594 14.367188 33.683594 18.355469 C 33.679688 26.585938 26.945312 33.285156 18.675781 33.285156 Z M 26.910156 22.105469 C 26.457031 21.882812 24.242188 20.796875 23.824219 20.648438 C 23.410156 20.496094 23.113281 20.421875 22.8125 20.871094 C 22.511719 21.320312 21.644531 22.332031 21.382812 22.632812 C 21.121094 22.929688 20.855469 22.96875 20.40625 22.742188 C 19.953125 22.519531 18.5 22.042969 16.777344 20.515625 C 15.4375 19.324219 14.53125 17.855469 14.265625 17.40625 C 14.003906 16.957031 14.238281 16.714844 14.464844 16.492188 C 14.667969 16.289062 14.914062 15.964844 15.140625 15.703125 C 15.367188 15.441406 15.441406 15.253906 15.59375 14.953125 C 15.742188 14.65625 15.667969 14.394531 15.554688 14.167969 C 15.441406 13.945312 14.539062 11.734375 14.164062 10.835938 C 13.796875 9.960938 13.425781 10.082031 13.148438 10.066406 C 12.886719 10.054688 12.585938 10.050781 12.285156 10.050781 C 11.984375 10.050781 11.496094 10.160156 11.082031 10.609375 C 10.667969 11.0625 9.503906 12.148438 9.503906 14.355469 C 9.503906 16.5625 11.121094 18.695312 11.347656 18.996094 C 11.570312 19.296875 14.527344 23.828125 19.054688 25.773438 C 20.128906 26.234375 20.96875 26.511719 21.625 26.71875 C 22.707031 27.058594 23.691406 27.011719 24.46875 26.894531 C 25.335938 26.765625 27.136719 25.808594 27.511719 24.761719 C 27.890625 23.714844 27.890625 22.816406 27.773438 22.628906 C 27.660156 22.4375 27.359375 22.328125 26.910156 22.101562 Z M 26.910156 22.105469 " fill-opacity="1" fill-rule="evenodd"/></g></svg>